<?xml version="1.0" encoding="iso-8859-1"?>
<!-- Generator: Adobe Illustrator 19.0.0, SVG Export Plug-In . SVG Version: 6.00 Build 0)  -->
<svg version="1.1" id="Capa_1" xmlns="http://www.w3.org/2000/svg" xmlns:xlink="http://www.w3.org/1999/xlink" x="0px" y="0px"
	 viewBox="0 0 44 44" style="enable-background:new 0 0 42 42;" xml:space="preserve">
<path style="fill:#23A24D;" d="M37.059,16H26V4.941C26,2.224,23.718,0,21,0s-5,2.224-5,4.941V16H4.941C2.224,16,0,18.282,0,21
	s2.224,5,4.941,5H16v11.059C16,39.776,18.282,42,21,42s5-2.224,5-4.941V26h11.059C39.776,26,42,23.718,42,21S39.776,16,37.059,16z"
	/>

<path d="M22,44c-3.309,0-6-2.665-6-5.941V28H5.941C2.665,28,0,25.309,0,22s2.665-6,5.941-6H16V5.941C16,2.665,18.691,0,22,0
	s6,2.665,6,5.941V16h10.059C41.335,16,44,18.691,44,22s-2.665,6-5.941,6H28v10.059C28,41.335,25.309,44,22,44z M5.941,18
	C3.805,18,2,19.832,2,22s1.805,4,3.941,4H18v12.059C18,40.195,19.832,42,22,42s4-1.805,4-3.941V26h12.059C40.195,26,42,24.168,42,22
	s-1.805-4-3.941-4H26V5.941C26,3.805,24.168,2,22,2s-4,1.805-4,3.941V18H5.941z"/>
</svg>
