<svg id="Layer_1" enable-background="new 0 0 512 512" height="512" viewBox="0 0 512 512" width="512" xmlns="http://www.w3.org/2000/svg"><g><g><path d="m402.19 361.375h-54.432v-30h54.432c11.548 0 20.943-9.396 20.943-20.944v-108.862c0-11.548-9.396-20.944-20.943-20.944h-54.432v-30h54.432c28.09 0 50.943 22.854 50.943 50.944v108.862c.001 28.09-22.853 50.944-50.943 50.944z" fill="#dbeeff"/></g><g><path d="m347.759 451.75h-241c-8.284 0-15-6.716-15-15v-271.125c0-8.284 6.716-15 15-15h241c8.284 0 15 6.716 15 15v271.125c0 8.284-6.716 15-15 15z" fill="#fff04a"/></g><path d="m347.759 150.625h-120.5v301.125h120.5c8.284 0 15-6.716 15-15v-271.125c0-8.284-6.716-15-15-15z" fill="#ffda45"/><g><path d="m167.009 391.5c-8.284 0-15-6.716-15-15v-150.625c0-8.284 6.716-15 15-15s15 6.716 15 15v150.625c0 8.284-6.716 15-15 15z" fill="#ffda45"/></g><g><path d="m227.259 391.5c-8.284 0-15-6.716-15-15v-150.625c0-8.284 6.716-15 15-15s15 6.716 15 15v150.625c0 8.284-6.716 15-15 15z" fill="#ffda45"/></g><g><path d="m287.509 391.5c-8.284 0-15-6.716-15-15v-150.625c0-8.284 6.716-15 15-15s15 6.716 15 15v150.625c0 8.284-6.716 15-15 15z" fill="#ffbc36"/></g><path d="m242.259 376.5v-150.625c0-8.284-6.716-15-15-15v180.625c8.284 0 15-6.716 15-15z" fill="#ffbc36"/><g><path d="m377.884 512h-301.25c-8.284 0-15-6.716-15-15v-60.25c0-8.284 6.716-15 15-15h301.25c8.284 0 15 6.716 15 15v60.25c0 8.284-6.716 15-15 15z" fill="#f5fafc"/></g><path d="m377.884 421.75h-150.625v90.25h150.625c8.284 0 15-6.716 15-15v-60.25c0-8.284-6.716-15-15-15z" fill="#dbeeff"/><g><path d="m338.67 180.625h-222.908c-31.372 0-56.896-25.523-56.896-56.896 0-27.403 19.476-50.344 45.311-55.71 3.465-32.028 30.666-57.047 63.6-57.047 9.278 0 18.443 2.048 26.803 5.903 10.545-10.648 25.043-16.875 40.435-16.875 23.824 0 44.274 14.717 52.736 35.54 4.358-1.157 8.877-1.756 13.446-1.756 28.905 0 52.427 23.492 52.473 52.386 19.377 6.33 33.417 24.576 33.417 46.039 0 26.696-21.72 48.416-48.417 48.416z" fill="#f2f6fc"/></g><path d="m353.67 86.169c-.046-28.895-23.567-52.386-52.473-52.386-4.569 0-9.088.599-13.446 1.756-8.462-20.822-28.912-35.539-52.736-35.539-2.617 0-5.205.194-7.756.545v180.08h111.411c26.697 0 48.417-21.72 48.417-48.417 0-21.462-14.04-39.709-33.417-46.039z" fill="#e9edf5"/></g></svg>