<?xml version="1.0" encoding="iso-8859-1"?>
<!-- Generator: Adobe Illustrator 19.0.0, SVG Export Plug-In . SVG Version: 6.00 Build 0)  -->
<svg version="1.1" id="Capa_1" xmlns="http://www.w3.org/2000/svg" xmlns:xlink="http://www.w3.org/1999/xlink" x="0px" y="0px"
	 viewBox="0 0 512 512" style="enable-background:new 0 0 512 512;" xml:space="preserve">
<path style="fill:#83CC8E;" d="M253.256,271.557c2.453-6.399,5.393-9.617,10.088-14.48v-57.189
	c-5.087-5.454-9.563-11.486-13.32-17.987c-10.376,7.796-23.039,12.701-36.801,13.556v50.858c0,3.026-3.606,4.591-5.822,2.53
	c-12.015-11.168-24.287-20.394-33.265-26.349c-10.487,14.961-25.633,26.405-43.324,32.263c1.035,0.747,2.117,1.447,3.291,2.045
	c0.638,0.326,65.266,35.132,78.87,90.942c0.072,0.293,0.169,0.574,0.25,0.862v99.012c-0.609,10.004-0.952,20.402-0.962,31.259
	c-0.014,14.076,11.559,25.9,25.631,25.586c13.577-0.304,24.49-11.405,24.49-25.055c0-54.198,8.906-103.692,25.964-141.482
	C257.778,330.523,242.689,299.12,253.256,271.557z"/>
<path style="fill:#78C181;" d="M232.932,479.38c0.011-10.857,0.361-21.255,0.983-31.259V338.078
	c-0.083-0.288-0.182-0.568-0.255-0.862c-13.896-55.809-79.911-90.616-80.563-90.942c-0.764-0.381-1.482-0.814-2.183-1.265
	c-6.192,4.071-12.934,7.376-20.103,9.75c1.035,0.747,2.117,1.447,3.291,2.045c0.638,0.326,65.266,35.132,78.87,90.942
	c0.071,0.293,0.167,0.574,0.25,0.862v99.012c-0.609,10.004-0.952,20.402-0.962,31.259c-0.014,14.076,11.559,25.9,25.631,25.586
	c3.372-0.075,6.579-0.818,9.496-2.099C238.837,498.161,232.922,489.337,232.932,479.38z"/>
<path style="fill:#83CC8E;" d="M399.567,368.533c-8.575,2.403-20.781,7.148-34.476,16.508l17.715-44.788
	c-1.636-4.167-2.802-8.523-3.464-12.982c-7.513,2.061-15.666,2.003-23.537-0.559l-12.58,31.805
	c-4.664-10.673-10.131-19.51-14.428-25.68c-9.158,6.036-20.138,9.081-31.308,8.445c2.891,4.52,28.71,32.564,24.943,69.804
	c-25.252,63.844-29.418,72.803-29.418,72.803c-3.056,7.726,0.73,16.468,8.456,19.524c7.726,3.056,16.467-0.73,19.523-8.456
	c15.348-38.805,36.438-68.217,60.992-85.057c12.467-8.55,22.934-11.85,28.315-13.082
	C402.985,389.347,399.037,379.067,399.567,368.533z"/>
<path style="fill:#78C181;" d="M309.671,487.901c0,0,5.168-15.98,30.421-79.824c3.597-35.571-19.783-62.735-24.407-69.038
	c-5.819,1.808-11.978,2.599-18.196,2.245c2.891,4.52,28.71,32.564,24.943,69.804c-25.252,63.844-29.418,72.803-29.418,72.803
	c-3.056,7.726,0.73,16.468,8.456,19.524c3.668,1.45,7.557,1.344,10.965,0.022C308.782,499.325,307.511,493.364,309.671,487.901z"/>
<path style="fill:#30AA44;" d="M305.694,232.448c0.622,2.191,1.36,4.335,2.207,6.422c3.849,0.568,7.696,1.568,11.47,3.061
	c0.007,0.003,0.013,0.006,0.019,0.008c6.82-16.046,25.225-23.818,41.531-17.368l0.064,0.025c3.952,1.569,8.354,1.521,12.284-0.098
	c11.085-4.565,23.879-5.013,35.907-0.255c6.401,2.531,11.94,6.298,16.481,10.902c1.845-5.483,2.95-11.293,3.188-17.308
	c0.401-10.103-1.599-19.693-5.461-28.266c-1.586-3.519-1.429-7.565,0.293-11.02c6.564-13.169,10.28-28.003,10.305-43.712
	c0.083-53.207-42.751-97.308-95.94-98.698c-10.161-0.266-19.981,1.011-29.249,3.609c-4.999,1.401-10.406-0.19-13.683-4.214
	c-14.656-17.998-36.977-29.502-61.998-29.502c-21.604,0-41.195,8.577-55.58,22.505c-5.07,4.908-11.799,7.583-18.856,7.568
	c-0.038,0-0.076,0-0.115,0c-29.201,0-53.225,21.722-53.973,50.741c-0.001,0.02-0.003,0.039-0.005,0.059c0,0.002,0,0.004,0,0.007
	c-0.047,0.848-0.651,1.544-1.499,1.56c-48.875,0.978-87.726,42.811-83.804,92.748c3.415,43.469,38.481,77.085,82.051,78.819
	c39.447,1.57,73.26-23.503,84.947-58.676c1.229-3.699,5.075-5.917,8.893-5.136c16.185,3.308,33.341,0.717,48.071-7.829
	c3.784-2.195,8.633-1.233,11.126,2.363c11.283,16.277,27.337,28.986,46.147,36.11C303.022,227.822,304.963,229.869,305.694,232.448z
	"/>
<path style="fill:#269E35;" d="M39.342,190.917c-3.923-49.937,34.929-91.77,83.804-92.748c0.849-0.017,1.452-0.713,1.499-1.56
	c0-0.002,0-0.005,0-0.007c0.002-0.02,0.004-0.04,0.005-0.059c0.748-29.019,24.772-50.741,53.973-50.741c0.038,0,0.076,0,0.114,0
	c7.057,0.015,13.787-2.66,18.856-7.568c14.383-13.927,33.975-22.505,55.58-22.505c8.497,0,16.68,1.33,24.36,3.787
	c-12.701-8.514-27.977-13.482-44.419-13.482c-21.604,0-41.195,8.577-55.58,22.505c-5.07,4.908-11.799,7.583-18.856,7.568
	c-0.038,0-0.076,0-0.114,0c-29.201,0-53.225,21.722-53.973,50.741c0,0.02-0.003,0.039-0.005,0.059c0,0.002,0,0.004,0,0.007
	c-0.047,0.847-0.651,1.544-1.499,1.56c-48.875,0.978-87.726,42.811-83.804,92.748c2.766,35.207,26.296,63.943,58.289,74.519
	C56.153,241.677,41.489,218.249,39.342,190.917z"/>
<path style="fill:#30AA44;" d="M461.301,263.757c-5.518-2.352-11.309-3.857-17.213-4.475c-2.982-0.313-5.468-2.283-6.335-5.02
	c-4.427-13.987-14.775-25.099-28.392-30.485c-11.762-4.652-24.679-4.548-36.372,0.294c-3.782,1.567-7.981,1.588-11.884,0.033
	c-15.092-5.971-31.725-0.161-39.922,13.249c-1.344,2.199-4.033,3.16-6.51,2.45c-26.133-7.491-54.136,6.499-63.377,32.905
	c-8.887,25.393,3.424,53.807,28.029,64.691c21.719,9.606,47.216,3.196,61.81-15.172c0.849-1.069,2.381-1.29,3.5-0.508
	c2.652,1.852,5.516,3.392,8.548,4.592c6.939,2.745,14.308,3.573,21.564,2.454c2.296-0.354,4.481,1.099,5.007,3.362
	c2.679,11.545,8.703,22.006,17.347,30.092c1.401,1.311,2.195,3.167,2.033,5.079c-1.903,22.261,15.783,41.3,37.911,41.3
	c14.751,0,28.867-8.627,35.089-22.7c2.395-5.418,3.486-11.142,3.243-17.014c-0.094-2.275,0.789-4.421,2.423-5.887
	c7.438-6.681,13.123-15.236,16.44-24.742C504.539,308.737,490.07,276.015,461.301,263.757z"/>
<path style="fill:#269E35;" d="M271.586,284.743c9.24-26.406,37.245-40.395,63.377-32.905c2.477,0.71,5.166-0.251,6.51-2.45
	c8.195-13.41,24.828-19.219,39.922-13.248c3.905,1.555,8.102,1.533,11.884-0.033c10.39-4.303,21.743-4.854,32.396-1.663
	c-4.596-4.56-10.11-8.213-16.313-10.666c-11.762-4.652-24.679-4.548-36.372,0.294c-3.782,1.567-7.981,1.588-11.884,0.033
	c-15.092-5.971-31.725-0.161-39.922,13.248c-1.344,2.199-4.033,3.16-6.51,2.45c-26.132-7.491-54.136,6.499-63.377,32.905
	c-8.887,25.393,3.424,53.807,28.029,64.691c1.787,0.79,3.603,1.462,5.433,2.038C270.492,325.685,264.734,304.32,271.586,284.743z"/>
<path d="M501.575,333.739c0.94-4.047-1.581-8.089-5.627-9.028c-4.046-0.939-8.089,1.581-9.028,5.628
	c-0.426,1.836-0.937,3.609-1.516,5.272c-7.468,21.402-19.859,20.262-19.303,33.604c1.132,27.307-32.137,41.858-51.512,22.541
	c-6.002-6.569-9.132-13.698-8.771-22.921c0.184-3.309,1.666-7.241-2.229-10.478c-9.098-7.563-15.26-17.983-17.589-29.501
	c-0.537-2.646-0.522-6.52-4.868-8.452c-5.44-2.417-10.058,3.695-24.104-0.802c-10.885-3.49-10.955-8.348-16.781-7.544
	c-2.066,0.287-3.921,1.418-5.12,3.124c-12.091,17.194-34.776,23.297-53.816,14.877h0.001c-34.73-15.361-34.517-64.663-0.448-80.234
	c11.476-5.245,24.157-5.121,34.419-0.924c1.819,0.744,3.861,0.736,5.652,0.017c3.449-1.386,3.986-4.052,5.209-6.292
	c5.938-10.873,18.971-15.721,30.8-11.043c5.782,2.303,12.126,2.273,17.858-0.101c22.063-9.137,46.929,2.717,54.043,25.199
	c1.83,5.782,6.993,9.934,13.148,10.578c18.39,1.926,35.134,13.637,42.58,32.444c1.53,3.863,5.905,5.754,9.763,4.224
	c3.863-1.53,5.754-5.9,4.225-9.763c-9.478-23.935-30.918-39.344-55.003-41.867c-0.222-0.023-0.352-0.126-0.371-0.155
	c-2.228-7.042-5.77-13.445-10.364-18.936c4.004-15.076,2.942-31.464-3.692-46.397c-0.727-1.636-0.72-3.424,0.02-4.906
	c34.644-69.515-15.246-151.272-92.17-153.283c-26.938-0.699-32.921,7.543-37.281,2.182c-12.915-15.868-31.025-26.757-50.994-30.661
	c-4.085-0.798-8.03,1.862-8.826,5.939c-0.797,4.077,1.861,8.029,5.938,8.826c16.524,3.231,31.515,12.248,42.211,25.392
	c5.119,6.291,13.606,8.91,21.619,6.671c75.572-21.097,141.158,57.763,106.039,128.224c-2.748,5.513-2.859,11.974-0.304,17.726
	c4.171,9.389,5.482,19.344,4.348,28.895c-14.958-9.363-33.72-11.257-50.687-4.23c-4.906,2.031-6.726-1.007-15.146-2.355
	c-15.494-2.476-30.894,4.408-39.413,17.58c-0.748-0.204-1.499-0.386-2.252-0.56c-1.687-5.233-1.407-9.395-6.471-11.055
	c-18.359-6.021-34.207-17.681-45.466-33.315c-5.551-7.69-5.497-10.419-10.031-11.343c-5.04-1.029-5.967,2.393-15.465,7.187
	c-13.766,6.849-30.174,8.393-45.534,3.538c-4.169-1.319-8.562,1.188-9.58,5.412c-8.561,35.57-41.374,61.365-79.317,59.849
	c-40.457-1.61-73.416-34.562-75.034-75.018c-1.504-37.582,23.362-69.461,57.609-78.769c9.622-2.204,45.591-8.09,72.204,19.073
	c1.473,1.503,3.423,2.258,5.373,2.258c1.901,0,3.8-0.715,5.264-2.149c2.968-2.908,3.016-7.67,0.108-10.637
	c-17.22-17.575-37.302-23.789-54.113-25.335c3.684-21.802,22.361-38.317,45.699-38.317c9.045,0,17.575-3.438,24.029-9.687
	c9.084-8.796,20.322-15.078,32.5-18.168c4.028-1.021,6.463-5.114,5.442-9.141c-1.022-4.027-5.118-6.466-9.14-5.441
	c-14.721,3.734-28.299,11.321-39.267,21.942c-3.632,3.516-8.449,5.451-13.487,5.451c-0.059,0-0.188-0.001-0.252-0.001
	c-31.344,0-56.503,23.339-60.627,52.598c-6.226,0.449-12.284,1.511-18.116,3.125c-1.389,0.343-2.255,0.602-2.495,0.676
	c-0.293,0.09-0.573,0.202-0.846,0.323c-38.783,12.326-66.654,49.352-64.916,92.8c2.376,59.372,60.479,102.83,119.082,85.843
	c32.727,18.453,66.155,49.216,75.018,85.578c0.056,0.23,0.036,97.627,0.036,97.863c-0.639,10.588-0.963,21.359-0.963,32.017
	c0,17.967,14.617,32.583,32.583,32.583s32.583-14.617,32.583-32.583c0-50.041,7.936-95.181,22.982-131.035
	c0.204,0.026,0.408,0.048,0.613,0.072c2.933,3.591,25.367,32.156,21.572,60.809c-23.217,58.698-29.047,71.866-29.047,71.866
	c-5.821,14.709,4.969,30.88,20.989,30.88c8.765,0,17.396-5.22,20.98-14.278c14.796-37.407,34.939-65.631,58.251-81.62
	c9.012-6.18,16.792-9.34,21.993-10.938c29.958,24.861,75.782,2.516,74.158-36.575c-0.008-0.207,0.063-0.34,0.099-0.371
	C491.061,359.389,498.406,347.406,501.575,333.739z M269.606,218.863c6.459,4.958,13.489,9.169,20.972,12.539
	c-7.296,1.086-14.352,3.517-20.972,7.326V218.863z M192.217,203.56c4.018,0.83,8.103,1.321,12.222,1.493v32.196
	c-7.369-6.349-14.369-11.653-20.311-15.846C187.406,215.822,190.139,209.858,192.217,203.56z M253.599,479.41
	c0,9.672-7.868,17.539-17.539,17.539c-9.67,0-17.539-7.868-17.539-17.539c0-17.24,0.963-31.791,0.963-31.791
	c0-105.923,0.211-99.567-0.463-101.652c-9.029-37.038-39.879-68.525-72.013-89.075c11.005-5.815,20.855-13.92,28.511-23.153
	c31.361,22.137,31.195,31.035,39.333,27.644c2.805-1.167,4.633-3.906,4.633-6.944v-50.221c9.567-1.485,18.701-4.77,27.039-9.752
	c2.114,3.098,5.084,6.976,8.04,10.333v46.318c-25.591,29.512-15.817,76.567,20.665,92.702c0.001,0,0.001,0,0.001,0
	c0.559,0.247,1.121,0.485,1.688,0.715C261.438,382.214,253.599,427.534,253.599,479.41z M382.674,357.854
	c1.575,2.167,3.279,4.245,5.113,6.217c-2.798,1.042-5.835,2.292-9.079,3.808L382.674,357.854z M342.766,329.651
	c0.682,0.396,1.378,0.77,2.079,1.133l-3.729,9.431c-1.17-2.03-2.317-3.913-3.414-5.651
	C339.475,333.04,341.168,331.402,342.766,329.651z M376.471,403.695c-25.792,17.69-47.829,48.29-63.732,88.494
	c-2.441,6.176-11.22,6.397-13.897,0.223c-0.798-1.843-0.83-3.887-0.091-5.757c3.747-9.478,7.556-17.533,7.556-17.533
	c23.621-59.717,22.204-55.797,22.352-57.3l0.03-0.349c3.559-26.028-9.58-50.662-18.288-63.689c5.096-0.996,10.066-2.658,14.739-4.94
	c3.149,5.009,6.744,11.389,9.932,18.684c2.675,6.125,11.439,5.945,13.888-0.246l10.17-25.713c4.151,0.712,8.739,0.895,13.1,0.436
	c0.377,1.399,0.802,2.78,1.267,4.146l-16.661,42.122c-1.216,3.074-0.282,6.581,2.301,8.644c2.582,2.062,6.207,2.197,8.939,0.333
	c8.737-5.973,16.791-9.907,23.396-12.49c0.925,4.998,2.687,9.758,5.171,14.106C390.987,395.096,384.04,398.505,376.471,403.695z"/>
<g>
</g>
<g>
</g>
<g>
</g>
<g>
</g>
<g>
</g>
<g>
</g>
<g>
</g>
<g>
</g>
<g>
</g>
<g>
</g>
<g>
</g>
<g>
</g>
<g>
</g>
<g>
</g>
<g>
</g>
</svg>
