<svg height="438pt" viewBox="-54 0 438 438.86164" width="438pt" xmlns="http://www.w3.org/2000/svg">
	<path d="m255.984375 9.144531-228.128906.003907c-10.097657 0-18.285157 8.183593-18.285157 18.285156v384c0 10.097656 8.1875 18.285156 18.285157 18.285156h274.285156c10.101563 0 18.289063-8.1875 18.289063-18.285156v-337.847656zm0 0"
	      fill="white"/>
	<g fill="#2a3d4f">
		<path d="m302.144531 438.863281h-274.285156c-15.125 0-27.429687-12.304687-27.429687-27.429687v-384c0-15.125 12.304687-27.42968775 27.429687-27.42968775l231.910156-.00390625 69.804688 69.800781v341.632813c0 15.125-12.304688 27.429687-27.429688 27.429687zm-49.945312-420.578125-224.339844.003906c-5.046875 0-9.144531 4.105469-9.144531 9.144532v384c0 5.039062 4.097656 9.140625 9.144531 9.140625h274.285156c5.046875 0 9.144531-4.101563 9.144531-9.140625v-334.0625zm0 0"/>
		<path d="m320.429688 82.289062h-45.714844c-15.125 0-27.425782-12.300781-27.425782-27.425781v-45.71875c0-3.699219 2.222657-7.03125 5.640626-8.449219 3.421874-1.410156 7.347656-.632812 9.964843 1.984376l60.882813 66.230468c2.617187 2.617188 6.519531 4.316406 5.101562 7.738282-1.414062 3.414062-4.75 5.640624-8.449218 5.640624zm-54.855469-51.070312v23.644531c0 5.039063 4.097656 9.140625 9.140625 9.140625h23.644531zm0 0"/>
		<path d="m55.289062 137.148438h18.285157v18.285156h-18.285157zm0 0"/>
		<path d="m55.289062 192.003906h18.285157v18.285156h-18.285157zm0 0"/>
		<path d="m55.289062 246.863281h18.285157v18.285157h-18.285157zm0 0"/>
		<path d="m55.289062 301.71875h18.285157v18.285156h-18.285157zm0 0"/>
		<path d="m55.289062 356.574219h18.285157v18.289062h-18.285157zm0 0"/>
		<path d="m110.144531 137.148438h164.570313v18.285156h-164.570313zm0 0"/>
		<path d="m110.144531 192.003906h164.570313v18.285156h-164.570313zm0 0"/>
		<path d="m110.144531 246.863281h164.570313v18.285157h-164.570313zm0 0"/>
		<path d="m110.144531 301.71875h164.570313v18.285156h-164.570313zm0 0"/>
		<path d="m110.144531 356.574219h164.570313v18.289062h-164.570313zm0 0"/>
	</g>
</svg>