<?xml version="1.0" encoding="iso-8859-1"?>
<!-- Generator: Adobe Illustrator 19.0.0, SVG Export Plug-In . SVG Version: 6.00 Build 0)  -->
<svg version="1.1" id="Capa_1" xmlns="http://www.w3.org/2000/svg" xmlns:xlink="http://www.w3.org/1999/xlink" x="0px" y="0px"
	 viewBox="0 0 512 512" style="enable-background:new 0 0 512 512;" xml:space="preserve">
<path style="fill:#E4C05C;" d="M146.961,292.488l-93.867-93.867c-36.659-36.659-36.659-96.094,0-132.745
	c36.659-36.659,96.094-36.659,132.745,0l217.225,217.225c0.887,0.887,8.286,8.482,9.131,9.395H146.961V292.488z"/>
<path style="fill:#694F87;" d="M102.4,473.574h307.2c51.84,0,93.867-42.027,93.867-93.867l0,0c0-51.84-42.027-93.867-93.867-93.867
	H102.4c-51.84,0-93.867,42.027-93.867,93.867l0,0C8.533,431.556,50.56,473.574,102.4,473.574z"/>
<g>
	<path style="fill:#4D007E;" d="M409.6,482.107H102.4c-56.465,0-102.4-45.935-102.4-102.4s45.935-102.4,102.4-102.4h307.2
		c56.465,0,102.4,45.935,102.4,102.4S466.065,482.107,409.6,482.107z M102.4,294.374c-47.053,0-85.333,38.281-85.333,85.333
		S55.348,465.04,102.4,465.04h307.2c47.053,0,85.333-38.281,85.333-85.333s-38.281-85.333-85.333-85.333H102.4z"/>
	<path style="fill:#4D007E;" d="M145.067,430.907H102.4c-28.237,0-51.2-22.963-51.2-51.2c0-4.71,3.823-8.533,8.533-8.533
		s8.533,3.823,8.533,8.533c0,18.825,15.309,34.133,34.133,34.133h42.667c4.71,0,8.533,3.823,8.533,8.533
		S149.777,430.907,145.067,430.907z"/>
	<path style="fill:#4D007E;" d="M256,482.107c-4.71,0-8.533-3.823-8.533-8.533V285.841c0-4.71,3.823-8.533,8.533-8.533
		c4.71,0,8.533,3.823,8.533,8.533v187.733C264.533,478.293,260.71,482.107,256,482.107z"/>
	<path style="fill:#4D007E;" d="M119.467,201.122c-2.185,0-4.369-0.836-6.033-2.5L83.26,168.447
		c-19.959-19.959-19.959-52.446,0-72.405c3.337-3.337,8.73-3.337,12.066,0c3.337,3.328,3.337,8.73,0,12.066
		c-13.312,13.312-13.312,34.97,0,48.273l30.174,30.174c3.337,3.337,3.337,8.73,0,12.066
		C123.836,200.285,121.651,201.122,119.467,201.122z"/>
	<path style="fill:#4D007E;" d="M183.108,294.357c-2.185,0-4.369-0.836-6.033-2.5c-3.337-3.337-3.337-8.73,0-12.066l111.343-111.343
		c3.337-3.337,8.73-3.337,12.066,0c3.337,3.337,3.337,8.73,0,12.066L189.141,291.857
		C187.477,293.529,185.293,294.357,183.108,294.357z"/>
	<path style="fill:#4D007E;" d="M405.547,294.374H140.314c-2.261,0-4.437-0.896-6.033-2.5l-87.219-87.219
		c-39.919-39.927-39.919-104.892,0-144.819c39.927-39.927,104.892-39.919,144.819,0L409.105,277.06
		c0.674,0.674,1.289,1.374,1.903,2.074l0.811,0.905c2.313,2.492,2.918,6.101,1.562,9.216
		C412.015,292.369,408.943,294.374,405.547,294.374z M143.846,277.307h241.365L179.806,71.901
		c-33.263-33.271-87.407-33.263-120.687,0c-33.263,33.271-33.263,87.415,0,120.687L143.846,277.307z"/>
</g>
<g>
</g>
<g>
</g>
<g>
</g>
<g>
</g>
<g>
</g>
<g>
</g>
<g>
</g>
<g>
</g>
<g>
</g>
<g>
</g>
<g>
</g>
<g>
</g>
<g>
</g>
<g>
</g>
<g>
</g>
</svg>
