<?xml version="1.0" encoding="iso-8859-1"?>
<!-- Generator: Adobe Illustrator 19.0.0, SVG Export Plug-In . SVG Version: 6.00 Build 0)  -->
<svg version="1.1" id="Layer_1" xmlns="http://www.w3.org/2000/svg" xmlns:xlink="http://www.w3.org/1999/xlink" x="0px" y="0px"
	 viewBox="0 0 512 512" style="enable-background:new 0 0 512 512;" xml:space="preserve">
<path style="fill:#FFF3AD;" d="M497.752,171.63C462.88,71.701,367.821,0,256,0C114.615,0,0,114.616,0,256
	c0,111.821,71.701,206.88,171.63,241.752L497.752,171.63z"/>
<path style="fill:#FFE65A;" d="M512,256c0-29.565-5.028-57.949-14.248-84.37L365.078,38.957l-33.394,151.372L180.313,38.957V384
	l-33.391,89.043l24.708,24.708C198.051,506.971,226.436,512,256,512C397.384,512,512,397.384,512,256z"/>
<path style="fill:#185F9F;" d="M151.719,423.661c-2.639,8.795-4.797,23.504-4.797,32.687v16.696c0,0,23.93-14.47,33.391-39.302
	l11.13-72.003L163.617,384L151.719,423.661z"/>
<path style="fill:#134C7F;" d="M208.907,423.661c2.639,8.795,4.797,23.504,4.797,32.687v16.696c0,0-23.93-14.47-33.391-39.302
	v-72.003L197.009,384L208.907,423.661z"/>
<path style="fill:#1C72BF;" d="M113.53,222.609c0.568,61.785,19.679,117.727,50.087,161.391h16.696l22.261-247.507h-75.91
	C118.428,163.317,113.809,192.301,113.53,222.609z"/>
<path style="fill:#5CB2FE;" d="M180.313,136.493V384h16.696c30.408-43.665,49.519-99.606,50.087-161.391
	c-0.278-30.308-4.897-59.292-13.134-86.116H180.313z"/>
<g>
	<path style="fill:#2185DE;" d="M126.664,136.493c15.905,8.782,34.193,13.768,53.649,13.768l22.261-55.652l-22.261-55.652
		C156.717,65.703,138.162,98.983,126.664,136.493z"/>
	<path style="fill:#2185DE;" d="M180.313,205.912c12.295,0,22.261-9.966,22.261-22.26V128l-22.261,22.261V205.912z"/>
</g>
<path style="fill:#1C72BF;" d="M180.313,150.261V38.957c23.597,26.746,42.151,60.026,53.649,97.536
	C218.056,145.274,199.769,150.261,180.313,150.261z"/>
<g>
	<rect x="135.791" y="228.174" style="fill:#134C7F;" width="22.261" height="22.261"/>
	<rect x="135.791" y="272.696" style="fill:#134C7F;" width="22.261" height="22.261"/>
	<rect x="135.791" y="183.652" style="fill:#134C7F;" width="22.261" height="22.261"/>
</g>
<path style="fill:#FFF3AD;" d="M163.617,103.513l-8.348,16.696l8.348,16.696c9.22,0,16.696-7.475,16.696-16.696
	S172.838,103.513,163.617,103.513z"/>
<path style="fill:#FFFFFF;" d="M146.922,120.209c0,9.22,7.475,16.696,16.696,16.696v-33.391
	C154.397,103.513,146.922,110.988,146.922,120.209z"/>
<path style="fill:#134C7F;" d="M360.281,88.339c2.639-8.795,4.797-23.504,4.797-32.687V38.957c0,0-23.93,14.47-33.391,39.302
	l-11.13,72.003L348.383,128L360.281,88.339z"/>
<path style="fill:#185F9F;" d="M303.093,88.339c-2.639-8.795-4.797-23.504-4.797-32.687V38.957c0,0,23.93,14.47,33.391,39.302
	v72.003L314.991,128L303.093,88.339z"/>
<path style="fill:#1C72BF;" d="M398.47,289.391c-0.568-61.785-19.679-117.727-50.087-161.391h-16.696l-22.261,247.507h75.91
	C393.572,348.683,398.191,319.699,398.47,289.391z"/>
<path style="fill:#5CB2FE;" d="M331.687,375.507V128h-16.696c-30.408,43.665-49.519,99.606-50.087,161.391
	c0.278,30.308,4.897,59.292,13.134,86.116H331.687z"/>
<path style="fill:#185F9F;" d="M385.336,375.507c-15.905-8.782-34.193-13.768-53.649-13.768l-22.261,55.652l22.261,55.652
	C355.283,446.297,373.838,413.017,385.336,375.507z"/>
<path style="fill:#2185DE;" d="M331.687,306.088c-12.295,0-22.261,9.966-22.261,22.26V384l22.261-22.261V306.088z"/>
<path style="fill:#1C72BF;" d="M331.687,361.739v111.304c-23.597-26.746-42.151-60.026-53.649-97.536
	C293.944,366.726,312.231,361.739,331.687,361.739z"/>
<g>
	<rect x="353.948" y="261.565" style="fill:#134C7F;" width="22.261" height="22.261"/>
	<rect x="353.948" y="217.043" style="fill:#134C7F;" width="22.261" height="22.261"/>
	<rect x="353.948" y="306.087" style="fill:#134C7F;" width="22.261" height="22.261"/>
</g>
<path style="fill:#FFF3AD;" d="M348.383,375.096l-8.348,16.696l8.348,16.696c9.22,0,16.696-7.475,16.696-16.696
	S357.603,375.096,348.383,375.096z"/>
<path style="fill:#FFFFFF;" d="M331.687,391.791c0,9.22,7.475,16.696,16.696,16.696v-33.391
	C339.162,375.096,331.687,382.571,331.687,391.791z"/>
<g>
</g>
<g>
</g>
<g>
</g>
<g>
</g>
<g>
</g>
<g>
</g>
<g>
</g>
<g>
</g>
<g>
</g>
<g>
</g>
<g>
</g>
<g>
</g>
<g>
</g>
<g>
</g>
<g>
</g>
</svg>
