<?xml version="1.0" encoding="iso-8859-1"?>
<!-- Generator: Adobe Illustrator 19.0.0, SVG Export Plug-In . SVG Version: 6.00 Build 0)  -->
<svg version="1.1" id="Capa_1" xmlns="http://www.w3.org/2000/svg" xmlns:xlink="http://www.w3.org/1999/xlink" x="0px" y="0px"
	 viewBox="0 0 511.998 511.998" style="enable-background:new 0 0 511.998 511.998;" xml:space="preserve">
<path style="fill:#D8E6F0;" d="M141.997,40.845c-0.789-4.667-2.44-9.373-5.02-13.842c-9.934-17.206-29.756-24.36-44.275-15.977
	s-18.234,29.126-8.3,46.331c2.58,4.468,5.83,8.252,9.478,11.268l0,0c40.583,33.596,92.451,123.824,101.317,166.085l0.017-0.01
	c0.711,3.4,1.965,6.805,3.842,10.057c8.104,14.037,24.275,19.872,36.119,13.035c11.844-6.838,14.876-23.76,6.771-37.797
	c-1.877-3.251-4.2-6.04-6.788-8.356l0.017-0.01C203.006,182.821,150.801,92.788,141.997,40.845L141.997,40.845z"/>
<path style="fill:#50B596;" d="M370.926,123.105c-19.684,11.365-32.091,30.493-35.586,51.284
	c19.753,7.369,42.523,6.189,62.207-5.176c19.684-11.365,32.091-30.493,35.586-51.284C413.379,110.56,390.61,111.74,370.926,123.105z
	"/>
<path style="fill:#81EBC7;" d="M341.755,90.324c-7.774,21.358-4.982,43.987,5.705,62.161c19.868-7.053,36.552-22.592,44.326-43.951
	c7.774-21.358,4.982-43.987-5.705-62.161C366.212,53.425,349.528,68.965,341.755,90.324z"/>
<path style="fill:#ED6161;" d="M350.231,207.519c12.774-16.856,20.362-37.858,20.362-60.638c0-55.509-45-100.509-100.509-100.509
	s-100.508,45-100.508,100.509c0,22.78,7.589,43.782,20.362,60.638H350.231z"/>
<path style="fill:#D14848;" d="M270.086,46.372c-2.367,0-4.714,0.088-7.04,0.249c45.387,3.614,81.232,47.117,81.232,100.26
	c0,22.78-6.596,43.783-17.697,60.638h23.65c12.774-16.856,20.362-37.858,20.362-60.638
	C370.595,91.372,325.595,46.372,270.086,46.372z"/>
<path style="fill:#FC7474;" d="M153.912,172.769c0-0.007-0.001-0.014-0.001-0.021c0-14.685,11.905-26.589,26.589-26.589
	s26.589,11.905,26.589,26.589c0-10.301,8.35-18.65,18.65-18.65c10.301,0,18.651,8.351,18.651,18.65h141.05
	c14.685,0,26.589,11.905,26.589,26.589s-11.905,26.589-26.589,26.589H154.729c-14.685,0-26.589-11.905-26.589-26.589
	C128.141,184.927,139.606,173.202,153.912,172.769z"/>
<path style="fill:#ED6161;" d="M385.442,172.748h-25.999c14.685,0,26.589,11.905,26.589,26.589s-11.905,26.589-26.589,26.589h25.999
	c14.685,0,26.589-11.905,26.589-26.589S400.127,172.748,385.442,172.748z"/>
<path style="fill:#D8E6F0;" d="M111.512,226.796l125.141,191.888h66.866L428.66,226.796c2.654-4.069-0.266-9.46-5.124-9.46h-306.9
	C111.778,217.337,108.858,222.726,111.512,226.796z"/>
<g>
	<path style="fill:#C1D2DE;" d="M423.536,217.337h-35.98c4.3,0,6.884,5.39,4.535,9.46L281.334,418.684h22.184l125.141-191.888
		C431.314,222.726,428.394,217.337,423.536,217.337z"/>
	<path style="fill:#C1D2DE;" d="M236.653,418.684L172.224,488c-5.838,6.281-1.384,16.501,7.191,16.501h181.342
		c8.575,0,13.029-10.221,7.191-16.501l-64.429-69.316H236.653z"/>
</g>
<path style="fill:#A1BAC9;" d="M367.948,487.999l-64.429-69.316h-22.23l53.736,69.316c4.869,6.281,1.154,16.501-5.998,16.501h31.73
	C369.332,504.5,373.786,494.279,367.948,487.999z"/>
<path d="M440.524,119.175c0.595-3.541-1.404-7.007-4.768-8.266c-4.485-1.679-9.134-2.96-13.815-3.806
	c-4.068-0.736-7.978,1.97-8.715,6.046c-0.736,4.076,1.971,7.978,6.047,8.714c1.702,0.308,3.399,0.687,5.082,1.133
	c-4.51,16.717-15.396,30.969-30.562,39.724c-1.672,0.967-3.401,1.867-5.159,2.686c-1.053-0.098-2.118-0.155-3.196-0.155h-8.924
	c1.04-6.036,1.574-12.182,1.574-18.369c0-1.459-0.033-2.908-0.089-4.339c9.289-8.631,16.461-19.424,20.836-31.446
	c8.261-22.709,5.967-47.686-6.295-68.525c-1.822-3.098-5.586-4.465-8.972-3.265c-15.86,5.626-29.378,15.929-38.921,29.459
	c-20.005-19.099-46.662-29.891-74.568-29.891c-14.589,0-28.733,2.857-42.043,8.494c-3.814,1.615-5.597,6.017-3.982,9.831
	c1.615,3.814,6.018,5.597,9.831,3.982c11.449-4.848,23.626-7.306,36.194-7.306c26.925,0,52.508,11.661,70.191,31.993
	c13.268,15.246,21.067,33.933,22.558,54.056c0.172,2.245,0.259,4.586,0.259,6.959c0,6.208-0.616,12.364-1.826,18.369H326.48
	c-4.143,0-7.5,3.358-7.5,7.5s3.357,7.5,7.5,7.5h40.704c0.01,0,0.02,0.002,0.03,0.002c0.008,0,0.016-0.002,0.024-0.002h18.2
	c10.526,0,19.089,8.563,19.089,19.089c0,3.773-1.116,7.403-3.16,10.497H138.796c-2.044-3.094-3.16-6.723-3.16-10.497
	c0-10.383,8.124-18.761,18.495-19.073c4.052-0.122,7.274-3.462,7.274-7.516c0-10.526,8.563-19.089,19.089-19.089
	s19.089,8.564,19.089,19.089c0,4.142,3.358,7.5,7.5,7.5s7.5-3.358,7.5-7.5c0-6.148,5.006-11.15,11.16-11.15
	c6.148,0,11.15,5.002,11.15,11.15c0,4.142,3.358,7.5,7.5,7.5h23.589c4.143,0,7.5-3.358,7.5-7.5s-3.357-7.5-7.5-7.5h-17.185
	c-3.232-10.775-13.241-18.649-25.054-18.649c-6.648,0-12.724,2.491-17.343,6.589c-6.173-8.78-16.38-14.529-27.905-14.529
	c-1.033,0-2.056,0.046-3.066,0.137c2.117-24.414,13.765-47.04,32.692-63.013c3.166-2.671,3.566-7.403,0.895-10.569
	c-2.672-3.166-7.403-3.566-10.569-0.895c-12.544,10.586-22.326,23.692-28.879,38.261c-11.591-24.367-19.358-46.334-22.177-62.989
	c-0.968-5.724-2.96-11.224-5.918-16.336c-5.686-9.855-14.341-17.274-24.369-20.893c-10.478-3.78-21.186-3.011-30.157,2.167
	c-18.065,10.435-23.02,35.812-11.042,56.571c2.959,5.127,6.726,9.602,11.192,13.298c18.078,14.969,40.273,43.351,60.895,77.871
	c0.515,0.86,1.007,1.72,1.514,2.58c-2.108,3.404-3.64,7.201-4.446,11.259c-15.251,3.448-26.421,16.96-26.421,33.229
	c0,3.605,0.571,7.14,1.655,10.497h-5.657c-5.003,0-9.591,2.732-11.974,7.131c-2.383,4.399-2.166,9.735,0.567,13.926l30.173,46.265
	c2.263,3.47,6.91,4.447,10.379,2.185c3.469-2.263,4.448-6.91,2.185-10.379l-28.779-44.129h15.904c0.023,0,0.045,0.003,0.068,0.003
	c0.025,0,0.05-0.003,0.075-0.003h269.697c0.025,0,0.05,0.003,0.075,0.003c0.023,0,0.045-0.003,0.068-0.003h15.909L299.456,411.183
	h-22.674c-4.143,0-7.5,3.358-7.5,7.5c0,4.142,3.357,7.5,7.5,7.5h23.469l62.205,66.922c0.854,0.919,0.703,1.869,0.427,2.504
	c-0.276,0.635-0.87,1.392-2.125,1.392H179.415c-1.255,0-1.849-0.757-2.125-1.392c-0.277-0.635-0.427-1.584,0.427-2.504
	l62.205-66.922h6.866c4.142,0,7.5-3.358,7.5-7.5c0-4.142-3.358-7.5-7.5-7.5h-6.071l-76.363-117.092
	c-2.263-3.47-6.909-4.446-10.379-2.185c-3.469,2.263-4.448,6.91-2.185,10.379l75.38,115.585l-60.439,65.022
	c-4.764,5.125-5.986,12.294-3.191,18.707s8.878,10.399,15.875,10.399h181.341c6.997,0,13.081-3.985,15.875-10.399
	c2.796-6.415,1.572-13.583-3.191-18.707l-60.439-65.022l121.939-186.978c2.732-4.19,2.949-9.526,0.566-13.925
	c-2.383-4.398-6.971-7.131-11.973-7.131h-5.663c1.084-3.357,1.655-6.891,1.655-10.497c0-10.894-5.143-20.603-13.121-26.848
	C424.54,160.151,436.856,141.026,440.524,119.175z M382.614,55.894c7.292,15.704,8.113,33.621,2.128,50.075
	c-2.243,6.164-5.389,11.929-9.295,17.107c-3.492-15.609-10.403-30.161-20.416-42.874C361.707,69.626,371.254,61.213,382.614,55.894z
	 M98.661,62.847c-3.089-2.556-5.702-5.665-7.765-9.24c-7.846-13.598-5.354-29.785,5.553-36.085
	c5.077-2.93,11.316-3.303,17.566-1.047c6.702,2.418,12.55,7.489,16.471,14.287c2.063,3.567,3.448,7.381,4.117,11.336
	c3.572,21.102,14.286,49.655,30.206,80.623c-1.54,6.727-2.443,13.638-2.67,20.65C140.877,107.987,117.786,78.682,98.661,62.847z"/>
<g>
</g>
<g>
</g>
<g>
</g>
<g>
</g>
<g>
</g>
<g>
</g>
<g>
</g>
<g>
</g>
<g>
</g>
<g>
</g>
<g>
</g>
<g>
</g>
<g>
</g>
<g>
</g>
<g>
</g>
</svg>
